<svg width="200" height="200" viewBox="0 0 200 200" xmlns="http://www.w3.org/2000/svg">

  <!-- cuerpo -->
  <rect x="50" y="45" width="100" height="95" rx="20" fill="#FF5722"/>

  <!-- orejas laterales -->
  <rect x="32" y="58" width="20" height="12" rx="6" fill="#e64a19"/>
  <rect x="148" y="58" width="20" height="12" rx="6" fill="#e64a19"/>

  <!-- antena izq -->
  <line x1="75" y1="45" x2="65" y2="18" stroke="#e64a19" stroke-width="4" stroke-linecap="round"/>
  <circle cx="65" cy="13" r="7" fill="#FF8A65"/>
  <circle cx="65" cy="13" r="3" fill="#ffffff"/>

  <!-- antena der -->
  <line x1="125" y1="45" x2="135" y2="18" stroke="#e64a19" stroke-width="4" stroke-linecap="round"/>
  <circle cx="135" cy="13" r="7" fill="#00e5cc"/>
  <circle cx="135" cy="13" r="3" fill="#ffffff"/>

  <!-- ojo izq pantalla -->
  <rect x="57" y="55" width="34" height="28" rx="6" fill="#0d1117"/>
  <rect x="57" y="55" width="34" height="28" rx="6" fill="none" stroke="#FF8A65" stroke-width="1.5"/>
  <text x="61" y="66" font-family="monospace" font-size="7" fill="#28c840">01</text>
  <text x="61" y="75" font-family="monospace" font-size="7" fill="#4a9eff">10</text>
  <text x="61" y="82" font-family="monospace" font-size="6" fill="#FF8A65">OK</text>

  <!-- ojo der pantalla -->
  <rect x="109" y="55" width="34" height="28" rx="6" fill="#0d1117"/>
  <rect x="109" y="55" width="34" height="28" rx="6" fill="none" stroke="#FF8A65" stroke-width="1.5"/>
  <text x="113" y="66" font-family="monospace" font-size="7" fill="#4a9eff">10</text>
  <text x="113" y="75" font-family="monospace" font-size="7" fill="#28c840">01</text>
  <text x="113" y="82" font-family="monospace" font-size="6" fill="#FF8A65">SYS</text>

  <!-- nariz -->
  <circle cx="100" cy="97" r="5" fill="#e64a19"/>

  <!-- boca -->
  <path d="M72 112 Q100 130 128 112" fill="none" stroke="#0d1117" stroke-width="4" stroke-linecap="round"/>

  <!-- dientes -->
  <rect x="86" y="112" width="9" height="10" rx="2" fill="#ffffff"/>
  <rect x="97" y="112" width="9" height="10" rx="2" fill="#ffffff"/>
  <rect x="108" y="112" width="9" height="10" rx="2" fill="#ffffff"/>

  <!-- piernas -->
  <rect x="68" y="138" width="24" height="20" rx="7" fill="#e64a19"/>
  <rect x="108" y="138" width="24" height="20" rx="7" fill="#e64a19"/>

  <!-- pies -->
  <ellipse cx="80" cy="160" rx="16" ry="7" fill="#bf360c"/>
  <ellipse cx="120" cy="160" rx="16" ry="7" fill="#bf360c"/>

  <!-- brazos -->
  <path d="M50 75 Q28 85 25 105" fill="none" stroke="#e64a19" stroke-width="10" stroke-linecap="round"/>
  <circle cx="24" cy="110" r="7" fill="#FF8A65"/>

  <path d="M150 75 Q172 85 175 105" fill="none" stroke="#e64a19" stroke-width="10" stroke-linecap="round"/>
  <circle cx="176" cy="110" r="7" fill="#FF8A65"/>

</svg>
